<mxfile host="app.diagrams.net" modified="2020-08-06T06:47:54.165Z" agent="5.0 (Macintosh; Intel Mac OS X 10_15_6) AppleWebKit/537.36 (KHTML, like Gecko) Chrome/84.0.4147.105 Safari/537.36 Edg/84.0.522.52" etag="m69yCHVOuA78qfFqmcQd" version="13.5.8" type="github">
  <diagram id="_5MlK92pP_jdn4NmUBOo" name="Page-1">
    <mxGraphModel dx="5622" dy="2245" grid="1" gridSize="10" guides="1" tooltips="1" connect="1" arrows="1" fold="1" page="1" pageScale="1" pageWidth="1169" pageHeight="1654" math="0" shadow="0">
      <root>
        <mxCell id="0" />
        <mxCell id="1" parent="0" />
        <mxCell id="A_dErglWLUNFQnM9_SRv-1" value="" style="rounded=0;whiteSpace=wrap;html=1;fillColor=#f5f5f5;strokeColor=#666666;fontColor=#333333;labelBackgroundColor=none;" vertex="1" parent="1">
          <mxGeometry x="-4216" y="-223" width="3462" height="1398" as="geometry" />
        </mxCell>
        <mxCell id="A_dErglWLUNFQnM9_SRv-2" style="edgeStyle=orthogonalEdgeStyle;rounded=0;orthogonalLoop=1;jettySize=auto;html=1;exitX=0.5;exitY=1;exitDx=0;exitDy=0;labelBackgroundColor=none;" edge="1" parent="1" source="A_dErglWLUNFQnM9_SRv-6" target="A_dErglWLUNFQnM9_SRv-10">
          <mxGeometry relative="1" as="geometry" />
        </mxCell>
        <mxCell id="A_dErglWLUNFQnM9_SRv-3" style="edgeStyle=orthogonalEdgeStyle;rounded=0;orthogonalLoop=1;jettySize=auto;html=1;exitX=0.5;exitY=1;exitDx=0;exitDy=0;entryX=0.5;entryY=0;entryDx=0;entryDy=0;labelBackgroundColor=none;" edge="1" parent="1" source="A_dErglWLUNFQnM9_SRv-6" target="A_dErglWLUNFQnM9_SRv-12">
          <mxGeometry relative="1" as="geometry" />
        </mxCell>
        <mxCell id="A_dErglWLUNFQnM9_SRv-4" style="edgeStyle=orthogonalEdgeStyle;rounded=0;orthogonalLoop=1;jettySize=auto;html=1;exitX=0.5;exitY=1;exitDx=0;exitDy=0;entryX=0.5;entryY=0;entryDx=0;entryDy=0;labelBackgroundColor=none;" edge="1" parent="1" source="A_dErglWLUNFQnM9_SRv-6" target="A_dErglWLUNFQnM9_SRv-14">
          <mxGeometry relative="1" as="geometry" />
        </mxCell>
        <mxCell id="A_dErglWLUNFQnM9_SRv-5" style="edgeStyle=orthogonalEdgeStyle;rounded=0;orthogonalLoop=1;jettySize=auto;html=1;exitX=0.5;exitY=1;exitDx=0;exitDy=0;entryX=0.5;entryY=0;entryDx=0;entryDy=0;labelBackgroundColor=none;" edge="1" parent="1" source="A_dErglWLUNFQnM9_SRv-6" target="A_dErglWLUNFQnM9_SRv-16">
          <mxGeometry relative="1" as="geometry" />
        </mxCell>
        <mxCell id="A_dErglWLUNFQnM9_SRv-6" value="Wijzigen Leningdelen" style="text;html=1;strokeColor=none;fillColor=none;align=center;verticalAlign=middle;whiteSpace=wrap;rounded=0;fontStyle=1;fontSize=15;labelBackgroundColor=none;" vertex="1" parent="1">
          <mxGeometry x="-3198.36" y="506" width="147" height="50" as="geometry" />
        </mxCell>
        <mxCell id="A_dErglWLUNFQnM9_SRv-7" style="edgeStyle=orthogonalEdgeStyle;rounded=0;orthogonalLoop=1;jettySize=auto;html=1;exitX=0.5;exitY=1;exitDx=0;exitDy=0;entryX=0.5;entryY=0;entryDx=0;entryDy=0;labelBackgroundColor=none;" edge="1" parent="1" source="A_dErglWLUNFQnM9_SRv-10" target="A_dErglWLUNFQnM9_SRv-18">
          <mxGeometry relative="1" as="geometry" />
        </mxCell>
        <mxCell id="A_dErglWLUNFQnM9_SRv-8" style="edgeStyle=orthogonalEdgeStyle;rounded=0;orthogonalLoop=1;jettySize=auto;html=1;exitX=0.5;exitY=1;exitDx=0;exitDy=0;entryX=0.5;entryY=0;entryDx=0;entryDy=0;labelBackgroundColor=none;" edge="1" parent="1" source="A_dErglWLUNFQnM9_SRv-10" target="A_dErglWLUNFQnM9_SRv-20">
          <mxGeometry relative="1" as="geometry" />
        </mxCell>
        <mxCell id="A_dErglWLUNFQnM9_SRv-9" style="edgeStyle=orthogonalEdgeStyle;rounded=0;orthogonalLoop=1;jettySize=auto;html=1;exitX=0.5;exitY=1;exitDx=0;exitDy=0;" edge="1" parent="1" source="A_dErglWLUNFQnM9_SRv-10" target="A_dErglWLUNFQnM9_SRv-121">
          <mxGeometry relative="1" as="geometry" />
        </mxCell>
        <mxCell id="A_dErglWLUNFQnM9_SRv-10" value="Wijzigen leningdeel#1" style="text;html=1;strokeColor=none;fillColor=none;align=center;verticalAlign=middle;whiteSpace=wrap;rounded=0;fontStyle=1;fontSize=15;labelBackgroundColor=none;" vertex="1" parent="1">
          <mxGeometry x="-3647.4300000000003" y="645.0000000000001" width="147" height="50" as="geometry" />
        </mxCell>
        <mxCell id="A_dErglWLUNFQnM9_SRv-11" style="edgeStyle=orthogonalEdgeStyle;rounded=0;orthogonalLoop=1;jettySize=auto;html=1;exitX=0.5;exitY=1;exitDx=0;exitDy=0;fontSize=15;labelBackgroundColor=none;" edge="1" parent="1" source="A_dErglWLUNFQnM9_SRv-12" target="A_dErglWLUNFQnM9_SRv-26">
          <mxGeometry relative="1" as="geometry" />
        </mxCell>
        <mxCell id="A_dErglWLUNFQnM9_SRv-12" value="NIET Wijzigen leningdeel#2" style="text;html=1;strokeColor=none;fillColor=none;align=center;verticalAlign=middle;whiteSpace=wrap;rounded=0;fontStyle=1;fontSize=15;labelBackgroundColor=none;" vertex="1" parent="1">
          <mxGeometry x="-3272.36" y="644.9999999999992" width="147" height="50" as="geometry" />
        </mxCell>
        <mxCell id="A_dErglWLUNFQnM9_SRv-13" style="edgeStyle=orthogonalEdgeStyle;rounded=0;orthogonalLoop=1;jettySize=auto;html=1;exitX=0.5;exitY=1;exitDx=0;exitDy=0;fontSize=15;labelBackgroundColor=none;" edge="1" parent="1" source="A_dErglWLUNFQnM9_SRv-14" target="A_dErglWLUNFQnM9_SRv-24">
          <mxGeometry relative="1" as="geometry" />
        </mxCell>
        <mxCell id="A_dErglWLUNFQnM9_SRv-14" value="Wijzigen leningdeel#3" style="text;html=1;strokeColor=none;fillColor=none;align=center;verticalAlign=middle;whiteSpace=wrap;rounded=0;fontStyle=1;fontSize=15;labelBackgroundColor=none;" vertex="1" parent="1">
          <mxGeometry x="-3084.36" y="644.9999999999992" width="147" height="50" as="geometry" />
        </mxCell>
        <mxCell id="A_dErglWLUNFQnM9_SRv-15" style="edgeStyle=orthogonalEdgeStyle;rounded=0;orthogonalLoop=1;jettySize=auto;html=1;exitX=0.5;exitY=1;exitDx=0;exitDy=0;entryX=0.5;entryY=0;entryDx=0;entryDy=0;fontSize=15;labelBackgroundColor=none;" edge="1" parent="1" source="A_dErglWLUNFQnM9_SRv-16" target="A_dErglWLUNFQnM9_SRv-22">
          <mxGeometry relative="1" as="geometry" />
        </mxCell>
        <mxCell id="A_dErglWLUNFQnM9_SRv-16" value="nieuw &lt;br&gt;leningdeel#4" style="text;html=1;strokeColor=none;fillColor=none;align=center;verticalAlign=middle;whiteSpace=wrap;rounded=0;fontStyle=1;fontSize=15;labelBackgroundColor=none;" vertex="1" parent="1">
          <mxGeometry x="-2897.36" y="644.9999999999992" width="147" height="50" as="geometry" />
        </mxCell>
        <mxCell id="A_dErglWLUNFQnM9_SRv-17" style="edgeStyle=orthogonalEdgeStyle;rounded=0;orthogonalLoop=1;jettySize=auto;html=1;exitX=0.5;exitY=1;exitDx=0;exitDy=0;entryX=0.5;entryY=0;entryDx=0;entryDy=0;fontSize=15;labelBackgroundColor=none;" edge="1" parent="1" source="A_dErglWLUNFQnM9_SRv-18" target="A_dErglWLUNFQnM9_SRv-27">
          <mxGeometry relative="1" as="geometry" />
        </mxCell>
        <mxCell id="A_dErglWLUNFQnM9_SRv-18" value="&lt;span style=&quot;color: rgb(0 , 0 , 0) ; font-family: &amp;#34;helvetica&amp;#34; ; font-size: 15px ; font-style: normal ; font-weight: 400 ; letter-spacing: normal ; text-indent: 0px ; text-transform: none ; word-spacing: 0px ; display: inline ; float: none&quot;&gt;Wijziging#2&lt;br&gt;Verlagen Leningdeel door Afkoop&lt;/span&gt;" style="text;whiteSpace=wrap;html=1;align=center;labelBackgroundColor=none;" vertex="1" parent="1">
          <mxGeometry x="-3666.43" y="846.03" width="185" height="90" as="geometry" />
        </mxCell>
        <mxCell id="A_dErglWLUNFQnM9_SRv-19" style="edgeStyle=orthogonalEdgeStyle;rounded=0;orthogonalLoop=1;jettySize=auto;html=1;exitX=0.5;exitY=1;exitDx=0;exitDy=0;entryX=0.5;entryY=0;entryDx=0;entryDy=0;fontSize=15;labelBackgroundColor=none;" edge="1" parent="1" source="A_dErglWLUNFQnM9_SRv-20" target="A_dErglWLUNFQnM9_SRv-28">
          <mxGeometry relative="1" as="geometry" />
        </mxCell>
        <mxCell id="A_dErglWLUNFQnM9_SRv-20" value="&lt;span style=&quot;color: rgb(0 , 0 , 0) ; font-family: &amp;#34;helvetica&amp;#34; ; font-size: 15px ; font-style: normal ; font-weight: 400 ; letter-spacing: normal ; text-indent: 0px ; text-transform: none ; word-spacing: 0px ; display: inline ; float: none&quot;&gt;Wijziging#3&lt;br&gt;Verkorten &lt;br&gt;Looptijd&lt;/span&gt;" style="text;whiteSpace=wrap;html=1;align=center;labelBackgroundColor=none;" vertex="1" parent="1">
          <mxGeometry x="-3478.5" y="846.0299999999997" width="185" height="90" as="geometry" />
        </mxCell>
        <mxCell id="A_dErglWLUNFQnM9_SRv-21" style="edgeStyle=orthogonalEdgeStyle;rounded=0;orthogonalLoop=1;jettySize=auto;html=1;exitX=0.5;exitY=1;exitDx=0;exitDy=0;entryX=0.5;entryY=0;entryDx=0;entryDy=0;fontSize=15;labelBackgroundColor=none;" edge="1" parent="1" source="A_dErglWLUNFQnM9_SRv-22" target="A_dErglWLUNFQnM9_SRv-31">
          <mxGeometry relative="1" as="geometry" />
        </mxCell>
        <mxCell id="A_dErglWLUNFQnM9_SRv-22" value="&lt;span style=&quot;color: rgb(0, 0, 0); font-family: helvetica; font-size: 15px; font-style: normal; font-weight: 400; letter-spacing: normal; text-indent: 0px; text-transform: none; word-spacing: 0px; display: inline; float: none;&quot;&gt;Nieuw leningdeel aanvragen door splitsen leningdeel#3&lt;/span&gt;" style="text;whiteSpace=wrap;html=1;align=center;labelBackgroundColor=none;" vertex="1" parent="1">
          <mxGeometry x="-2916.5" y="846.0299999999997" width="185" height="90" as="geometry" />
        </mxCell>
        <mxCell id="A_dErglWLUNFQnM9_SRv-23" style="edgeStyle=orthogonalEdgeStyle;rounded=0;orthogonalLoop=1;jettySize=auto;html=1;exitX=0.5;exitY=1;exitDx=0;exitDy=0;entryX=0.5;entryY=0;entryDx=0;entryDy=0;fontSize=15;labelBackgroundColor=none;" edge="1" parent="1" source="A_dErglWLUNFQnM9_SRv-24" target="A_dErglWLUNFQnM9_SRv-30">
          <mxGeometry relative="1" as="geometry" />
        </mxCell>
        <mxCell id="A_dErglWLUNFQnM9_SRv-24" value="Wijzigen leningdeel door splitsen (omzetten)" style="text;whiteSpace=wrap;html=1;fontSize=15;align=center;labelBackgroundColor=none;" vertex="1" parent="1">
          <mxGeometry x="-3103.5" y="846.0299999999997" width="185" height="90" as="geometry" />
        </mxCell>
        <mxCell id="A_dErglWLUNFQnM9_SRv-25" style="edgeStyle=orthogonalEdgeStyle;rounded=0;orthogonalLoop=1;jettySize=auto;html=1;exitX=0.5;exitY=1;exitDx=0;exitDy=0;entryX=0.5;entryY=0;entryDx=0;entryDy=0;fontSize=15;labelBackgroundColor=none;" edge="1" parent="1" source="A_dErglWLUNFQnM9_SRv-26" target="A_dErglWLUNFQnM9_SRv-29">
          <mxGeometry relative="1" as="geometry" />
        </mxCell>
        <mxCell id="A_dErglWLUNFQnM9_SRv-26" value="Ongewijzigd voortzetten leningdeel#2" style="text;whiteSpace=wrap;html=1;fontSize=15;align=center;labelBackgroundColor=none;" vertex="1" parent="1">
          <mxGeometry x="-3291.5" y="846.0299999999997" width="185" height="90" as="geometry" />
        </mxCell>
        <mxCell id="A_dErglWLUNFQnM9_SRv-27" value="&lt;p&gt;leningdeelNr (V)&lt;br&gt;nieuweProResto (V)&lt;br&gt;dekkingNrRefr&lt;br&gt;&lt;/p&gt;" style="text;html=1;strokeColor=none;fillColor=none;spacing=5;spacingTop=-20;whiteSpace=wrap;overflow=hidden;rounded=0;fontSize=15;align=center;labelBackgroundColor=none;" vertex="1" parent="1">
          <mxGeometry x="-3666.4300000000007" y="1007.9999999999999" width="185" height="90" as="geometry" />
        </mxCell>
        <mxCell id="A_dErglWLUNFQnM9_SRv-28" value="&lt;p&gt;leningdeelNr (V)&lt;br&gt;eindDatum looptijd (V)&lt;br&gt;duurInMndn (O)&lt;/p&gt;" style="text;html=1;strokeColor=none;fillColor=none;spacing=5;spacingTop=-20;whiteSpace=wrap;overflow=hidden;rounded=0;fontSize=15;align=center;labelBackgroundColor=none;" vertex="1" parent="1">
          <mxGeometry x="-3478.5" y="1008.0000000000001" width="185" height="90" as="geometry" />
        </mxCell>
        <mxCell id="A_dErglWLUNFQnM9_SRv-29" value="&lt;meta charset=&quot;utf-8&quot;&gt;&lt;span style=&quot;color: rgb(0, 0, 0); font-family: helvetica; font-size: 15px; font-style: normal; font-weight: 400; letter-spacing: normal; text-indent: 0px; text-transform: none; word-spacing: 0px; display: inline; float: none;&quot;&gt;leningdeelNr (V)&lt;/span&gt;" style="text;whiteSpace=wrap;html=1;fontSize=15;align=center;labelBackgroundColor=none;" vertex="1" parent="1">
          <mxGeometry x="-3291.5" y="1008.0000000000001" width="185" height="90" as="geometry" />
        </mxCell>
        <mxCell id="A_dErglWLUNFQnM9_SRv-30" value="&lt;p&gt;leningdeelNr (V)&lt;br&gt;productCode (V)&lt;br&gt;aflosVorm (V)&lt;br&gt;nieuweProResto (V)&lt;/p&gt;" style="text;html=1;strokeColor=none;fillColor=none;spacing=5;spacingTop=-20;whiteSpace=wrap;overflow=hidden;rounded=0;fontSize=15;align=center;labelBackgroundColor=none;" vertex="1" parent="1">
          <mxGeometry x="-3103.5" y="1008" width="185" height="90" as="geometry" />
        </mxCell>
        <mxCell id="A_dErglWLUNFQnM9_SRv-31" value="&lt;p&gt;productCode (V)&lt;br&gt;aflosVorm (V)&lt;br&gt;nieuweProResto (V)&lt;/p&gt;" style="text;html=1;strokeColor=none;fillColor=none;spacing=5;spacingTop=-20;whiteSpace=wrap;overflow=hidden;rounded=0;fontSize=15;align=center;labelBackgroundColor=none;" vertex="1" parent="1">
          <mxGeometry x="-2916.5" y="1008.0000000000001" width="185" height="90" as="geometry" />
        </mxCell>
        <mxCell id="A_dErglWLUNFQnM9_SRv-32" style="edgeStyle=orthogonalEdgeStyle;rounded=0;orthogonalLoop=1;jettySize=auto;html=1;exitX=0.5;exitY=1;exitDx=0;exitDy=0;entryX=0.5;entryY=0;entryDx=0;entryDy=0;fontSize=15;labelBackgroundColor=none;" edge="1" parent="1" source="A_dErglWLUNFQnM9_SRv-35" target="A_dErglWLUNFQnM9_SRv-38">
          <mxGeometry relative="1" as="geometry" />
        </mxCell>
        <mxCell id="A_dErglWLUNFQnM9_SRv-33" style="edgeStyle=orthogonalEdgeStyle;rounded=0;orthogonalLoop=1;jettySize=auto;html=1;exitX=0.5;exitY=1;exitDx=0;exitDy=0;entryX=0.5;entryY=0;entryDx=0;entryDy=0;fontSize=15;labelBackgroundColor=none;" edge="1" parent="1" source="A_dErglWLUNFQnM9_SRv-35" target="A_dErglWLUNFQnM9_SRv-49">
          <mxGeometry relative="1" as="geometry" />
        </mxCell>
        <mxCell id="A_dErglWLUNFQnM9_SRv-34" style="edgeStyle=orthogonalEdgeStyle;rounded=0;orthogonalLoop=1;jettySize=auto;html=1;exitX=0.5;exitY=1;exitDx=0;exitDy=0;entryX=0.5;entryY=0;entryDx=0;entryDy=0;fontSize=15;labelBackgroundColor=none;" edge="1" parent="1" source="A_dErglWLUNFQnM9_SRv-35" target="A_dErglWLUNFQnM9_SRv-51">
          <mxGeometry relative="1" as="geometry" />
        </mxCell>
        <mxCell id="A_dErglWLUNFQnM9_SRv-35" value="Wijzigen Hypotheek#2" style="text;html=1;strokeColor=none;fillColor=none;align=center;verticalAlign=middle;whiteSpace=wrap;rounded=0;fontStyle=1;fontSize=15;labelBackgroundColor=none;" vertex="1" parent="1">
          <mxGeometry x="-2596.5" y="192.00000000000034" width="147" height="20" as="geometry" />
        </mxCell>
        <mxCell id="A_dErglWLUNFQnM9_SRv-36" style="edgeStyle=orthogonalEdgeStyle;rounded=0;orthogonalLoop=1;jettySize=auto;html=1;exitX=0.5;exitY=1;exitDx=0;exitDy=0;entryX=0.5;entryY=0;entryDx=0;entryDy=0;fontSize=15;labelBackgroundColor=none;" edge="1" parent="1" source="A_dErglWLUNFQnM9_SRv-38" target="A_dErglWLUNFQnM9_SRv-6">
          <mxGeometry relative="1" as="geometry" />
        </mxCell>
        <mxCell id="A_dErglWLUNFQnM9_SRv-37" style="edgeStyle=orthogonalEdgeStyle;rounded=0;orthogonalLoop=1;jettySize=auto;html=1;exitX=0.5;exitY=1;exitDx=0;exitDy=0;entryX=0.5;entryY=0;entryDx=0;entryDy=0;fontSize=15;labelBackgroundColor=none;" edge="1" parent="1" source="A_dErglWLUNFQnM9_SRv-38" target="A_dErglWLUNFQnM9_SRv-42">
          <mxGeometry relative="1" as="geometry" />
        </mxCell>
        <mxCell id="A_dErglWLUNFQnM9_SRv-38" value="&lt;span style=&quot;font-weight: 700&quot;&gt;Wijzigen Lening#1&lt;/span&gt;" style="text;whiteSpace=wrap;html=1;fontSize=15;align=center;labelBackgroundColor=none;" vertex="1" parent="1">
          <mxGeometry x="-2941.495714285714" y="384" width="153" height="50" as="geometry" />
        </mxCell>
        <mxCell id="A_dErglWLUNFQnM9_SRv-39" style="edgeStyle=orthogonalEdgeStyle;rounded=0;orthogonalLoop=1;jettySize=auto;html=1;exitX=0.5;exitY=1;exitDx=0;exitDy=0;fontSize=15;labelBackgroundColor=none;" edge="1" parent="1">
          <mxGeometry relative="1" as="geometry">
            <mxPoint x="-2781" y="135" as="sourcePoint" />
            <mxPoint x="-2781" y="135" as="targetPoint" />
          </mxGeometry>
        </mxCell>
        <mxCell id="A_dErglWLUNFQnM9_SRv-40" style="edgeStyle=orthogonalEdgeStyle;rounded=0;orthogonalLoop=1;jettySize=auto;html=1;exitX=0.5;exitY=1;exitDx=0;exitDy=0;entryX=0.5;entryY=0;entryDx=0;entryDy=0;fontSize=15;labelBackgroundColor=none;" edge="1" parent="1" source="A_dErglWLUNFQnM9_SRv-42" target="A_dErglWLUNFQnM9_SRv-44">
          <mxGeometry relative="1" as="geometry" />
        </mxCell>
        <mxCell id="A_dErglWLUNFQnM9_SRv-41" style="edgeStyle=orthogonalEdgeStyle;rounded=0;orthogonalLoop=1;jettySize=auto;html=1;exitX=0.5;exitY=1;exitDx=0;exitDy=0;entryX=0.5;entryY=0;entryDx=0;entryDy=0;fontSize=15;labelBackgroundColor=none;" edge="1" parent="1" source="A_dErglWLUNFQnM9_SRv-42" target="A_dErglWLUNFQnM9_SRv-46">
          <mxGeometry relative="1" as="geometry" />
        </mxCell>
        <mxCell id="A_dErglWLUNFQnM9_SRv-42" value="Wijzigen Dekkingen" style="text;html=1;strokeColor=none;fillColor=none;align=center;verticalAlign=middle;whiteSpace=wrap;rounded=0;fontStyle=1;fontSize=15;labelBackgroundColor=none;" vertex="1" parent="1">
          <mxGeometry x="-2610.5" y="506" width="147" height="50" as="geometry" />
        </mxCell>
        <mxCell id="A_dErglWLUNFQnM9_SRv-43" style="edgeStyle=orthogonalEdgeStyle;rounded=0;orthogonalLoop=1;jettySize=auto;html=1;exitX=0.5;exitY=1;exitDx=0;exitDy=0;fontSize=15;labelBackgroundColor=none;" edge="1" parent="1" source="A_dErglWLUNFQnM9_SRv-44" target="A_dErglWLUNFQnM9_SRv-62">
          <mxGeometry relative="1" as="geometry" />
        </mxCell>
        <mxCell id="A_dErglWLUNFQnM9_SRv-44" value="Wijzigen dekking#1" style="text;html=1;strokeColor=none;fillColor=none;align=center;verticalAlign=middle;whiteSpace=wrap;rounded=0;fontStyle=1;fontSize=15;labelBackgroundColor=none;" vertex="1" parent="1">
          <mxGeometry x="-2702.5" y="644.9999999999993" width="147" height="50" as="geometry" />
        </mxCell>
        <mxCell id="A_dErglWLUNFQnM9_SRv-45" style="edgeStyle=orthogonalEdgeStyle;rounded=0;orthogonalLoop=1;jettySize=auto;html=1;exitX=0.5;exitY=1;exitDx=0;exitDy=0;entryX=0.5;entryY=0;entryDx=0;entryDy=0;fontSize=15;labelBackgroundColor=none;" edge="1" parent="1" source="A_dErglWLUNFQnM9_SRv-46" target="A_dErglWLUNFQnM9_SRv-60">
          <mxGeometry relative="1" as="geometry" />
        </mxCell>
        <mxCell id="A_dErglWLUNFQnM9_SRv-46" value="Wijzigen dekking#2" style="text;html=1;strokeColor=none;fillColor=none;align=center;verticalAlign=middle;whiteSpace=wrap;rounded=0;fontStyle=1;fontSize=15;labelBackgroundColor=none;" vertex="1" parent="1">
          <mxGeometry x="-2506.5" y="644.9999999999993" width="147" height="50" as="geometry" />
        </mxCell>
        <mxCell id="A_dErglWLUNFQnM9_SRv-47" style="edgeStyle=orthogonalEdgeStyle;rounded=0;orthogonalLoop=1;jettySize=auto;html=1;exitX=0.5;exitY=1;exitDx=0;exitDy=0;entryX=0.5;entryY=0;entryDx=0;entryDy=0;fontSize=15;labelBackgroundColor=none;" edge="1" parent="1" source="A_dErglWLUNFQnM9_SRv-49" target="A_dErglWLUNFQnM9_SRv-55">
          <mxGeometry relative="1" as="geometry" />
        </mxCell>
        <mxCell id="A_dErglWLUNFQnM9_SRv-48" style="edgeStyle=orthogonalEdgeStyle;rounded=0;orthogonalLoop=1;jettySize=auto;html=1;exitX=0.5;exitY=1;exitDx=0;exitDy=0;entryX=0.5;entryY=0;entryDx=0;entryDy=0;fontSize=15;labelBackgroundColor=none;" edge="1" parent="1" source="A_dErglWLUNFQnM9_SRv-49" target="A_dErglWLUNFQnM9_SRv-57">
          <mxGeometry relative="1" as="geometry" />
        </mxCell>
        <mxCell id="A_dErglWLUNFQnM9_SRv-49" value="&lt;span style=&quot;color: rgb(0, 0, 0); font-family: helvetica; font-size: 15px; font-style: normal; font-weight: 700; letter-spacing: normal; text-indent: 0px; text-transform: none; word-spacing: 0px; display: inline; float: none;&quot;&gt;Wijzigen depots&lt;/span&gt;" style="text;whiteSpace=wrap;html=1;fontSize=15;align=center;labelBackgroundColor=none;" vertex="1" parent="1">
          <mxGeometry x="-1974.4957142857138" y="384" width="153" height="50" as="geometry" />
        </mxCell>
        <mxCell id="A_dErglWLUNFQnM9_SRv-50" style="edgeStyle=orthogonalEdgeStyle;rounded=0;orthogonalLoop=1;jettySize=auto;html=1;exitX=0.5;exitY=1;exitDx=0;exitDy=0;fontSize=15;labelBackgroundColor=none;" edge="1" parent="1" source="A_dErglWLUNFQnM9_SRv-51" target="A_dErglWLUNFQnM9_SRv-53">
          <mxGeometry relative="1" as="geometry" />
        </mxCell>
        <mxCell id="A_dErglWLUNFQnM9_SRv-51" value="&lt;span style=&quot;color: rgb(0, 0, 0); font-family: helvetica; font-size: 15px; font-style: normal; font-weight: 700; letter-spacing: normal; text-indent: 0px; text-transform: none; word-spacing: 0px; display: inline; float: none;&quot;&gt;Wijzigen hypotheekdekking&lt;/span&gt;" style="text;whiteSpace=wrap;html=1;fontSize=15;align=center;labelBackgroundColor=none;" vertex="1" parent="1">
          <mxGeometry x="-2325.495714285714" y="384" width="153" height="50" as="geometry" />
        </mxCell>
        <mxCell id="A_dErglWLUNFQnM9_SRv-52" style="edgeStyle=orthogonalEdgeStyle;rounded=0;orthogonalLoop=1;jettySize=auto;html=1;exitX=0.5;exitY=1;exitDx=0;exitDy=0;entryX=0.5;entryY=0;entryDx=0;entryDy=0;fontSize=15;labelBackgroundColor=none;" edge="1" parent="1" source="A_dErglWLUNFQnM9_SRv-53" target="A_dErglWLUNFQnM9_SRv-69">
          <mxGeometry relative="1" as="geometry" />
        </mxCell>
        <mxCell id="A_dErglWLUNFQnM9_SRv-53" value="&lt;meta charset=&quot;utf-8&quot;&gt;&lt;span style=&quot;color: rgb(0, 0, 0); font-family: helvetica; font-size: 15px; font-style: normal; font-weight: 700; letter-spacing: normal; text-indent: 0px; text-transform: none; word-spacing: 0px; display: inline; float: none;&quot;&gt;Wijzigen hypotheekdekking#1 (ORV)&lt;/span&gt;" style="text;whiteSpace=wrap;html=1;fontSize=15;align=center;labelBackgroundColor=none;" vertex="1" parent="1">
          <mxGeometry x="-2339" y="506" width="180" height="50" as="geometry" />
        </mxCell>
        <mxCell id="A_dErglWLUNFQnM9_SRv-54" style="edgeStyle=orthogonalEdgeStyle;rounded=0;orthogonalLoop=1;jettySize=auto;html=1;exitX=0.5;exitY=1;exitDx=0;exitDy=0;fontSize=15;labelBackgroundColor=none;" edge="1" parent="1" source="A_dErglWLUNFQnM9_SRv-55" target="A_dErglWLUNFQnM9_SRv-65">
          <mxGeometry relative="1" as="geometry" />
        </mxCell>
        <mxCell id="A_dErglWLUNFQnM9_SRv-55" value="&lt;span style=&quot;color: rgb(0, 0, 0); font-family: helvetica; font-size: 15px; font-style: normal; font-weight: 700; letter-spacing: normal; text-indent: 0px; text-transform: none; word-spacing: 0px; display: inline; float: none;&quot;&gt;Wijzigen depot#1 (BouwDepot)&lt;/span&gt;" style="text;whiteSpace=wrap;html=1;fontSize=15;align=center;labelBackgroundColor=none;" vertex="1" parent="1">
          <mxGeometry x="-2084.495714285714" y="506" width="153" height="50" as="geometry" />
        </mxCell>
        <mxCell id="A_dErglWLUNFQnM9_SRv-56" style="edgeStyle=orthogonalEdgeStyle;rounded=0;orthogonalLoop=1;jettySize=auto;html=1;exitX=0.5;exitY=1;exitDx=0;exitDy=0;entryX=0.5;entryY=0;entryDx=0;entryDy=0;fontSize=15;labelBackgroundColor=none;" edge="1" parent="1" source="A_dErglWLUNFQnM9_SRv-57" target="A_dErglWLUNFQnM9_SRv-67">
          <mxGeometry relative="1" as="geometry" />
        </mxCell>
        <mxCell id="A_dErglWLUNFQnM9_SRv-57" value="&lt;span style=&quot;color: rgb(0, 0, 0); font-family: helvetica; font-size: 15px; font-style: normal; font-weight: 700; letter-spacing: normal; text-indent: 0px; text-transform: none; word-spacing: 0px; display: inline; float: none;&quot;&gt;NIET Wijzigen depot#2 (EnergieDepot)&lt;/span&gt;" style="text;whiteSpace=wrap;html=1;fontSize=15;align=center;labelBackgroundColor=none;" vertex="1" parent="1">
          <mxGeometry x="-1848.4957142857138" y="506" width="153" height="50" as="geometry" />
        </mxCell>
        <mxCell id="A_dErglWLUNFQnM9_SRv-58" value="&lt;div&gt;&lt;span&gt;&lt;font face=&quot;helvetica&quot;&gt;dekkingNr (V)&lt;/font&gt;&lt;/span&gt;&lt;/div&gt;&lt;div&gt;&lt;font face=&quot;helvetica&quot;&gt;polisNr (V)&lt;/font&gt;&lt;/div&gt;&lt;div&gt;&lt;span&gt;afkoopWaarde (V)&lt;/span&gt;&lt;br&gt;&lt;/div&gt;&lt;div&gt;maatschappij (V)&lt;font face=&quot;helvetica&quot;&gt;&lt;br&gt;&lt;/font&gt;&lt;/div&gt;&lt;div&gt;leningdeelNrRef (V)&lt;/div&gt;" style="text;whiteSpace=wrap;html=1;fontSize=15;align=center;labelBackgroundColor=none;" vertex="1" parent="1">
          <mxGeometry x="-2721.5" y="1007.9999999999998" width="185" height="90" as="geometry" />
        </mxCell>
        <mxCell id="A_dErglWLUNFQnM9_SRv-59" style="edgeStyle=orthogonalEdgeStyle;rounded=0;orthogonalLoop=1;jettySize=auto;html=1;exitX=0.5;exitY=1;exitDx=0;exitDy=0;entryX=0.5;entryY=0;entryDx=0;entryDy=0;fontSize=15;labelBackgroundColor=none;" edge="1" parent="1" source="A_dErglWLUNFQnM9_SRv-60" target="A_dErglWLUNFQnM9_SRv-63">
          <mxGeometry relative="1" as="geometry" />
        </mxCell>
        <mxCell id="A_dErglWLUNFQnM9_SRv-60" value="Fiscaal geruisloos voortzetten bestaande polis" style="text;whiteSpace=wrap;html=1;fontSize=15;align=center;labelBackgroundColor=none;" vertex="1" parent="1">
          <mxGeometry x="-2525.5" y="846.0299999999997" width="185" height="90" as="geometry" />
        </mxCell>
        <mxCell id="A_dErglWLUNFQnM9_SRv-61" style="edgeStyle=orthogonalEdgeStyle;rounded=0;orthogonalLoop=1;jettySize=auto;html=1;exitX=0.5;exitY=1;exitDx=0;exitDy=0;entryX=0.5;entryY=0;entryDx=0;entryDy=0;fontSize=15;labelBackgroundColor=none;" edge="1" parent="1" source="A_dErglWLUNFQnM9_SRv-62" target="A_dErglWLUNFQnM9_SRv-58">
          <mxGeometry relative="1" as="geometry" />
        </mxCell>
        <mxCell id="A_dErglWLUNFQnM9_SRv-62" value="Beëindigen financiele dekking door opzeggen polis met aflossing opgebouwde waarde (afkoop)" style="text;whiteSpace=wrap;html=1;fontSize=15;align=center;labelBackgroundColor=none;" vertex="1" parent="1">
          <mxGeometry x="-2721.5" y="846.0299999999997" width="185" height="90" as="geometry" />
        </mxCell>
        <mxCell id="A_dErglWLUNFQnM9_SRv-63" value="&lt;div style=&quot;color: rgb(0, 0, 0); font-family: helvetica; font-size: 15px; font-style: normal; font-weight: 400; letter-spacing: normal; text-indent: 0px; text-transform: none; word-spacing: 0px;&quot;&gt;&lt;span&gt;&lt;font face=&quot;helvetica&quot;&gt;dekkingNr (V)&lt;/font&gt;&lt;/span&gt;&lt;/div&gt;&lt;div style=&quot;color: rgb(0, 0, 0); font-family: helvetica; font-size: 15px; font-style: normal; font-weight: 400; letter-spacing: normal; text-indent: 0px; text-transform: none; word-spacing: 0px;&quot;&gt;&lt;font face=&quot;helvetica&quot;&gt;polisNr (CV)&lt;/font&gt;&lt;/div&gt;" style="text;whiteSpace=wrap;html=1;fontSize=15;align=center;labelBackgroundColor=none;" vertex="1" parent="1">
          <mxGeometry x="-2525.5" y="1007.9999999999998" width="185" height="90" as="geometry" />
        </mxCell>
        <mxCell id="A_dErglWLUNFQnM9_SRv-64" style="edgeStyle=orthogonalEdgeStyle;rounded=0;orthogonalLoop=1;jettySize=auto;html=1;exitX=0.5;exitY=1;exitDx=0;exitDy=0;entryX=0.5;entryY=0;entryDx=0;entryDy=0;fontSize=15;labelBackgroundColor=none;" edge="1" parent="1" source="A_dErglWLUNFQnM9_SRv-65" target="A_dErglWLUNFQnM9_SRv-115">
          <mxGeometry relative="1" as="geometry" />
        </mxCell>
        <mxCell id="A_dErglWLUNFQnM9_SRv-65" value="Beëindigen depot door storting resterende depotwaarde op rekening klant" style="text;whiteSpace=wrap;html=1;fontSize=15;align=center;labelBackgroundColor=none;" vertex="1" parent="1">
          <mxGeometry x="-2114" y="645" width="212" height="66" as="geometry" />
        </mxCell>
        <mxCell id="A_dErglWLUNFQnM9_SRv-66" style="edgeStyle=orthogonalEdgeStyle;rounded=0;orthogonalLoop=1;jettySize=auto;html=1;exitX=0.5;exitY=1;exitDx=0;exitDy=0;entryX=0.5;entryY=0;entryDx=0;entryDy=0;fontSize=15;labelBackgroundColor=none;" edge="1" parent="1" source="A_dErglWLUNFQnM9_SRv-67" target="A_dErglWLUNFQnM9_SRv-113">
          <mxGeometry relative="1" as="geometry" />
        </mxCell>
        <mxCell id="A_dErglWLUNFQnM9_SRv-67" value="Depot ongewijzigd voortzetten" style="text;whiteSpace=wrap;html=1;fontSize=15;align=center;labelBackgroundColor=none;" vertex="1" parent="1">
          <mxGeometry x="-1839" y="645" width="134" height="66" as="geometry" />
        </mxCell>
        <mxCell id="A_dErglWLUNFQnM9_SRv-68" style="edgeStyle=orthogonalEdgeStyle;rounded=0;orthogonalLoop=1;jettySize=auto;html=1;exitX=0.5;exitY=1;exitDx=0;exitDy=0;entryX=0.5;entryY=0;entryDx=0;entryDy=0;fontSize=15;labelBackgroundColor=none;" edge="1" parent="1" source="A_dErglWLUNFQnM9_SRv-69" target="A_dErglWLUNFQnM9_SRv-114">
          <mxGeometry relative="1" as="geometry" />
        </mxCell>
        <mxCell id="A_dErglWLUNFQnM9_SRv-69" value="Wijzigen financiele dekking door aanpassen verzekerde waarde (bij lagere hoofdsom)" style="text;whiteSpace=wrap;html=1;fontSize=15;align=center;labelBackgroundColor=none;" vertex="1" parent="1">
          <mxGeometry x="-2339" y="644.9999999999999" width="180" height="85" as="geometry" />
        </mxCell>
        <mxCell id="A_dErglWLUNFQnM9_SRv-70" style="edgeStyle=orthogonalEdgeStyle;rounded=0;orthogonalLoop=1;jettySize=auto;html=1;exitX=0.5;exitY=1;exitDx=0;exitDy=0;entryX=0.5;entryY=0;entryDx=0;entryDy=0;fontSize=15;labelBackgroundColor=none;" edge="1" parent="1" source="A_dErglWLUNFQnM9_SRv-71" target="A_dErglWLUNFQnM9_SRv-104">
          <mxGeometry relative="1" as="geometry" />
        </mxCell>
        <mxCell id="A_dErglWLUNFQnM9_SRv-71" value="Wijzigen Hypotheekgever#1" style="text;html=1;strokeColor=none;fillColor=none;align=center;verticalAlign=middle;whiteSpace=wrap;rounded=0;fontStyle=1;fontSize=15;labelBackgroundColor=none;" vertex="1" parent="1">
          <mxGeometry x="-1586.5" y="385.9999999999999" width="147" height="20" as="geometry" />
        </mxCell>
        <mxCell id="A_dErglWLUNFQnM9_SRv-72" style="edgeStyle=orthogonalEdgeStyle;rounded=0;orthogonalLoop=1;jettySize=auto;html=1;exitX=0.5;exitY=1;exitDx=0;exitDy=0;entryX=0.5;entryY=0;entryDx=0;entryDy=0;fontSize=15;labelBackgroundColor=none;" edge="1" parent="1" source="A_dErglWLUNFQnM9_SRv-82" target="A_dErglWLUNFQnM9_SRv-35">
          <mxGeometry relative="1" as="geometry" />
        </mxCell>
        <mxCell id="A_dErglWLUNFQnM9_SRv-73" style="edgeStyle=orthogonalEdgeStyle;rounded=0;orthogonalLoop=1;jettySize=auto;html=1;exitX=0.5;exitY=1;exitDx=0;exitDy=0;entryX=0.5;entryY=0;entryDx=0;entryDy=0;fontSize=15;labelBackgroundColor=none;" edge="1" parent="1" source="A_dErglWLUNFQnM9_SRv-76" target="A_dErglWLUNFQnM9_SRv-82">
          <mxGeometry relative="1" as="geometry" />
        </mxCell>
        <mxCell id="A_dErglWLUNFQnM9_SRv-74" style="edgeStyle=orthogonalEdgeStyle;rounded=0;orthogonalLoop=1;jettySize=auto;html=1;exitX=0.5;exitY=1;exitDx=0;exitDy=0;entryX=0.5;entryY=0;entryDx=0;entryDy=0;fontSize=15;labelBackgroundColor=none;" edge="1" parent="1" source="A_dErglWLUNFQnM9_SRv-76" target="A_dErglWLUNFQnM9_SRv-85">
          <mxGeometry relative="1" as="geometry" />
        </mxCell>
        <mxCell id="A_dErglWLUNFQnM9_SRv-75" style="edgeStyle=orthogonalEdgeStyle;rounded=0;orthogonalLoop=1;jettySize=auto;html=1;exitX=0.5;exitY=1;exitDx=0;exitDy=0;entryX=0.5;entryY=0;entryDx=0;entryDy=0;fontSize=15;labelBackgroundColor=none;" edge="1" parent="1" source="A_dErglWLUNFQnM9_SRv-76" target="A_dErglWLUNFQnM9_SRv-95">
          <mxGeometry relative="1" as="geometry" />
        </mxCell>
        <mxCell id="A_dErglWLUNFQnM9_SRv-76" value="BeheerVerzoek&lt;br&gt;Hoofdelijk ontslag" style="text;html=1;strokeColor=none;fillColor=none;align=center;verticalAlign=middle;whiteSpace=wrap;rounded=0;fontStyle=1;fontSize=15;labelBackgroundColor=none;" vertex="1" parent="1">
          <mxGeometry x="-2468.5" y="-145" width="147" height="20" as="geometry" />
        </mxCell>
        <mxCell id="A_dErglWLUNFQnM9_SRv-77" style="edgeStyle=orthogonalEdgeStyle;rounded=0;orthogonalLoop=1;jettySize=auto;html=1;entryX=0.5;entryY=0;entryDx=0;entryDy=0;fontSize=15;labelBackgroundColor=none;" edge="1" parent="1" source="A_dErglWLUNFQnM9_SRv-78" target="A_dErglWLUNFQnM9_SRv-80">
          <mxGeometry relative="1" as="geometry" />
        </mxCell>
        <mxCell id="A_dErglWLUNFQnM9_SRv-78" value="NIET Wijzigen Hypotheek#1" style="text;html=1;strokeColor=none;fillColor=none;align=center;verticalAlign=middle;whiteSpace=wrap;rounded=0;fontStyle=1;fontSize=15;labelBackgroundColor=none;" vertex="1" parent="1">
          <mxGeometry x="-3518.5" y="192.00000000000034" width="147" height="20" as="geometry" />
        </mxCell>
        <mxCell id="A_dErglWLUNFQnM9_SRv-79" style="edgeStyle=orthogonalEdgeStyle;rounded=0;orthogonalLoop=1;jettySize=auto;html=1;exitX=0.5;exitY=1;exitDx=0;exitDy=0;entryX=0.5;entryY=0;entryDx=0;entryDy=0;fontSize=15;labelBackgroundColor=none;" edge="1" parent="1" source="A_dErglWLUNFQnM9_SRv-80" target="A_dErglWLUNFQnM9_SRv-112">
          <mxGeometry relative="1" as="geometry" />
        </mxCell>
        <mxCell id="A_dErglWLUNFQnM9_SRv-80" value="Hypotheek ongewijzigd voortzetten" style="text;whiteSpace=wrap;html=1;fontSize=15;align=center;labelBackgroundColor=none;" vertex="1" parent="1">
          <mxGeometry x="-3511.9999999999995" y="340.0000000000002" width="134" height="66" as="geometry" />
        </mxCell>
        <mxCell id="A_dErglWLUNFQnM9_SRv-81" style="edgeStyle=orthogonalEdgeStyle;rounded=0;orthogonalLoop=1;jettySize=auto;html=1;exitX=0.5;exitY=1;exitDx=0;exitDy=0;entryX=0.5;entryY=0;entryDx=0;entryDy=0;fontSize=15;labelBackgroundColor=none;" edge="1" parent="1" source="A_dErglWLUNFQnM9_SRv-82" target="A_dErglWLUNFQnM9_SRv-78">
          <mxGeometry relative="1" as="geometry" />
        </mxCell>
        <mxCell id="A_dErglWLUNFQnM9_SRv-82" value="Hypotheken" style="text;html=1;strokeColor=none;fillColor=none;align=center;verticalAlign=middle;whiteSpace=wrap;rounded=0;fontStyle=1;fontSize=15;labelBackgroundColor=none;" vertex="1" parent="1">
          <mxGeometry x="-3020.5" y="39" width="147" height="20" as="geometry" />
        </mxCell>
        <mxCell id="A_dErglWLUNFQnM9_SRv-83" style="edgeStyle=orthogonalEdgeStyle;rounded=0;orthogonalLoop=1;jettySize=auto;html=1;exitX=0.5;exitY=1;exitDx=0;exitDy=0;entryX=0.5;entryY=0;entryDx=0;entryDy=0;fontSize=15;labelBackgroundColor=none;" edge="1" parent="1" source="A_dErglWLUNFQnM9_SRv-85" target="A_dErglWLUNFQnM9_SRv-87">
          <mxGeometry relative="1" as="geometry" />
        </mxCell>
        <mxCell id="A_dErglWLUNFQnM9_SRv-84" style="edgeStyle=orthogonalEdgeStyle;rounded=0;orthogonalLoop=1;jettySize=auto;html=1;exitX=0.5;exitY=1;exitDx=0;exitDy=0;fontSize=15;labelBackgroundColor=none;" edge="1" parent="1" source="A_dErglWLUNFQnM9_SRv-85" target="A_dErglWLUNFQnM9_SRv-89">
          <mxGeometry relative="1" as="geometry" />
        </mxCell>
        <mxCell id="A_dErglWLUNFQnM9_SRv-85" value="Onderpand" style="text;html=1;strokeColor=none;fillColor=none;align=center;verticalAlign=middle;whiteSpace=wrap;rounded=0;fontStyle=1;fontSize=15;labelBackgroundColor=none;" vertex="1" parent="1">
          <mxGeometry x="-4020.5" y="39" width="147" height="20" as="geometry" />
        </mxCell>
        <mxCell id="A_dErglWLUNFQnM9_SRv-86" style="edgeStyle=orthogonalEdgeStyle;rounded=0;orthogonalLoop=1;jettySize=auto;html=1;exitX=0.5;exitY=1;exitDx=0;exitDy=0;entryX=0.5;entryY=0;entryDx=0;entryDy=0;fontSize=15;labelBackgroundColor=none;" edge="1" parent="1" source="A_dErglWLUNFQnM9_SRv-87" target="A_dErglWLUNFQnM9_SRv-91">
          <mxGeometry relative="1" as="geometry" />
        </mxCell>
        <mxCell id="A_dErglWLUNFQnM9_SRv-87" value="Wijizigen Object#1&lt;br&gt;Woonhuis" style="text;html=1;strokeColor=none;fillColor=none;align=center;verticalAlign=middle;whiteSpace=wrap;rounded=0;fontStyle=1;fontSize=15;labelBackgroundColor=none;" vertex="1" parent="1">
          <mxGeometry x="-4154.5" y="192.00000000000034" width="147" height="20" as="geometry" />
        </mxCell>
        <mxCell id="A_dErglWLUNFQnM9_SRv-88" style="edgeStyle=orthogonalEdgeStyle;rounded=0;orthogonalLoop=1;jettySize=auto;html=1;entryX=0.5;entryY=0;entryDx=0;entryDy=0;fontSize=15;labelBackgroundColor=none;" edge="1" parent="1" source="A_dErglWLUNFQnM9_SRv-89" target="A_dErglWLUNFQnM9_SRv-111">
          <mxGeometry relative="1" as="geometry" />
        </mxCell>
        <mxCell id="A_dErglWLUNFQnM9_SRv-89" value="NIET wijzigen Object#=2&lt;br&gt;Perceel met garage" style="text;html=1;strokeColor=none;fillColor=none;align=center;verticalAlign=middle;whiteSpace=wrap;rounded=0;fontStyle=1;fontSize=15;labelBackgroundColor=none;" vertex="1" parent="1">
          <mxGeometry x="-3856.5" y="192.00000000000034" width="147" height="20" as="geometry" />
        </mxCell>
        <mxCell id="A_dErglWLUNFQnM9_SRv-90" style="edgeStyle=orthogonalEdgeStyle;rounded=0;orthogonalLoop=1;jettySize=auto;html=1;exitX=0.5;exitY=1;exitDx=0;exitDy=0;entryX=0.5;entryY=0;entryDx=0;entryDy=0;fontSize=15;labelBackgroundColor=none;" edge="1" parent="1" source="A_dErglWLUNFQnM9_SRv-91" target="A_dErglWLUNFQnM9_SRv-92">
          <mxGeometry relative="1" as="geometry" />
        </mxCell>
        <mxCell id="A_dErglWLUNFQnM9_SRv-91" value="Wijzigen marktwaarde object" style="text;whiteSpace=wrap;html=1;fontSize=15;align=center;labelBackgroundColor=none;" vertex="1" parent="1">
          <mxGeometry x="-4148" y="340.0000000000001" width="134" height="66" as="geometry" />
        </mxCell>
        <mxCell id="A_dErglWLUNFQnM9_SRv-92" value="&lt;div&gt;&lt;font face=&quot;helvetica&quot; style=&quot;font-size: 15px&quot;&gt;Id (V)&lt;/font&gt;&lt;/div&gt;&lt;div&gt;&lt;span&gt;&lt;font face=&quot;helvetica&quot; style=&quot;font-size: 15px&quot;&gt;..... (V)&lt;/font&gt;&lt;/span&gt;&lt;/div&gt;&lt;div&gt;&lt;span&gt;&lt;font face=&quot;helvetica&quot; style=&quot;font-size: 15px&quot;&gt;.... (CV)&lt;/font&gt;&lt;/span&gt;&lt;/div&gt;&lt;div&gt;&lt;span&gt;&lt;font face=&quot;helvetica&quot; style=&quot;font-size: 15px&quot;&gt;.... (O)&lt;/font&gt;&lt;/span&gt;&lt;/div&gt;" style="text;whiteSpace=wrap;html=1;fontSize=15;align=center;labelBackgroundColor=none;" vertex="1" parent="1">
          <mxGeometry x="-4158" y="467" width="154" height="68" as="geometry" />
        </mxCell>
        <mxCell id="A_dErglWLUNFQnM9_SRv-93" style="edgeStyle=orthogonalEdgeStyle;rounded=0;orthogonalLoop=1;jettySize=auto;html=1;exitX=0.5;exitY=1;exitDx=0;exitDy=0;fontSize=15;entryX=0.5;entryY=0;entryDx=0;entryDy=0;labelBackgroundColor=none;" edge="1" parent="1" source="A_dErglWLUNFQnM9_SRv-95" target="A_dErglWLUNFQnM9_SRv-101">
          <mxGeometry relative="1" as="geometry">
            <mxPoint x="-1523.5" y="124" as="targetPoint" />
          </mxGeometry>
        </mxCell>
        <mxCell id="A_dErglWLUNFQnM9_SRv-94" style="edgeStyle=orthogonalEdgeStyle;rounded=0;orthogonalLoop=1;jettySize=auto;html=1;exitX=0.5;exitY=1;exitDx=0;exitDy=0;entryX=0.5;entryY=0;entryDx=0;entryDy=0;fontSize=15;labelBackgroundColor=none;" edge="1" parent="1" source="A_dErglWLUNFQnM9_SRv-95" target="A_dErglWLUNFQnM9_SRv-102">
          <mxGeometry relative="1" as="geometry" />
        </mxCell>
        <mxCell id="A_dErglWLUNFQnM9_SRv-95" value="Partijen" style="text;html=1;strokeColor=none;fillColor=none;align=center;verticalAlign=middle;whiteSpace=wrap;rounded=0;fontStyle=1;fontSize=15;labelBackgroundColor=none;" vertex="1" parent="1">
          <mxGeometry x="-1108.4999999999998" y="39" width="147" height="20" as="geometry" />
        </mxCell>
        <mxCell id="A_dErglWLUNFQnM9_SRv-96" style="edgeStyle=orthogonalEdgeStyle;rounded=0;orthogonalLoop=1;jettySize=auto;html=1;exitX=0.5;exitY=1;exitDx=0;exitDy=0;entryX=0.5;entryY=0;entryDx=0;entryDy=0;fontSize=15;labelBackgroundColor=none;" edge="1" parent="1" source="A_dErglWLUNFQnM9_SRv-97" target="A_dErglWLUNFQnM9_SRv-106">
          <mxGeometry relative="1" as="geometry" />
        </mxCell>
        <mxCell id="A_dErglWLUNFQnM9_SRv-97" value="NIET Wijzigen Hypotheekgever#2" style="text;html=1;strokeColor=none;fillColor=none;align=center;verticalAlign=middle;whiteSpace=wrap;rounded=0;fontStyle=1;fontSize=15;labelBackgroundColor=none;" vertex="1" parent="1">
          <mxGeometry x="-1336.9999999999998" y="385.9999999999999" width="147" height="20" as="geometry" />
        </mxCell>
        <mxCell id="A_dErglWLUNFQnM9_SRv-98" style="edgeStyle=orthogonalEdgeStyle;rounded=0;orthogonalLoop=1;jettySize=auto;html=1;exitX=0.5;exitY=1;exitDx=0;exitDy=0;entryX=0.5;entryY=0;entryDx=0;entryDy=0;fontSize=15;labelBackgroundColor=none;" edge="1" parent="1" source="A_dErglWLUNFQnM9_SRv-101" target="A_dErglWLUNFQnM9_SRv-71">
          <mxGeometry relative="1" as="geometry" />
        </mxCell>
        <mxCell id="A_dErglWLUNFQnM9_SRv-99" style="edgeStyle=orthogonalEdgeStyle;rounded=0;orthogonalLoop=1;jettySize=auto;html=1;exitX=0.5;exitY=1;exitDx=0;exitDy=0;entryX=0.5;entryY=0;entryDx=0;entryDy=0;fontSize=15;labelBackgroundColor=none;" edge="1" parent="1" source="A_dErglWLUNFQnM9_SRv-101" target="A_dErglWLUNFQnM9_SRv-97">
          <mxGeometry relative="1" as="geometry" />
        </mxCell>
        <mxCell id="A_dErglWLUNFQnM9_SRv-100" style="edgeStyle=orthogonalEdgeStyle;rounded=0;orthogonalLoop=1;jettySize=auto;html=1;exitX=0.5;exitY=1;exitDx=0;exitDy=0;entryX=0.5;entryY=0;entryDx=0;entryDy=0;fontSize=15;labelBackgroundColor=none;" edge="1" parent="1" source="A_dErglWLUNFQnM9_SRv-101" target="A_dErglWLUNFQnM9_SRv-108">
          <mxGeometry relative="1" as="geometry" />
        </mxCell>
        <mxCell id="A_dErglWLUNFQnM9_SRv-101" value="Wijzigen Hypotheekgevers" style="text;html=1;strokeColor=none;fillColor=none;align=center;verticalAlign=middle;whiteSpace=wrap;rounded=0;fontStyle=1;fontSize=15;labelBackgroundColor=none;" vertex="1" parent="1">
          <mxGeometry x="-1336.9999999999998" y="192.0000000000001" width="147" height="20" as="geometry" />
        </mxCell>
        <mxCell id="A_dErglWLUNFQnM9_SRv-102" value="NIET Wijzigen&lt;br&gt;Adviseur" style="text;html=1;strokeColor=none;fillColor=none;align=center;verticalAlign=middle;whiteSpace=wrap;rounded=0;fontStyle=1;fontSize=15;labelBackgroundColor=none;" vertex="1" parent="1">
          <mxGeometry x="-923.5" y="192" width="147" height="20" as="geometry" />
        </mxCell>
        <mxCell id="A_dErglWLUNFQnM9_SRv-103" style="edgeStyle=orthogonalEdgeStyle;rounded=0;orthogonalLoop=1;jettySize=auto;html=1;exitX=0.5;exitY=1;exitDx=0;exitDy=0;entryX=0.5;entryY=0;entryDx=0;entryDy=0;fontSize=15;labelBackgroundColor=none;" edge="1" parent="1" source="A_dErglWLUNFQnM9_SRv-104" target="A_dErglWLUNFQnM9_SRv-116">
          <mxGeometry relative="1" as="geometry" />
        </mxCell>
        <mxCell id="A_dErglWLUNFQnM9_SRv-104" value="Ontslaan hypotheekgever door echtscheiding" style="text;whiteSpace=wrap;html=1;fontSize=15;align=center;labelBackgroundColor=none;" vertex="1" parent="1">
          <mxGeometry x="-1595.5" y="506" width="166" height="66" as="geometry" />
        </mxCell>
        <mxCell id="A_dErglWLUNFQnM9_SRv-105" style="edgeStyle=orthogonalEdgeStyle;rounded=0;orthogonalLoop=1;jettySize=auto;html=1;exitX=0.5;exitY=1;exitDx=0;exitDy=0;entryX=0.5;entryY=0;entryDx=0;entryDy=0;fontSize=15;labelBackgroundColor=none;" edge="1" parent="1" source="A_dErglWLUNFQnM9_SRv-106" target="A_dErglWLUNFQnM9_SRv-118">
          <mxGeometry relative="1" as="geometry" />
        </mxCell>
        <mxCell id="A_dErglWLUNFQnM9_SRv-106" value="Ongewijzigd voortzetten hypotheekgever" style="text;whiteSpace=wrap;html=1;fontSize=15;align=center;labelBackgroundColor=none;" vertex="1" parent="1">
          <mxGeometry x="-1346.499999999999" y="510" width="166" height="66" as="geometry" />
        </mxCell>
        <mxCell id="A_dErglWLUNFQnM9_SRv-107" style="edgeStyle=orthogonalEdgeStyle;rounded=0;orthogonalLoop=1;jettySize=auto;html=1;exitX=0.5;exitY=1;exitDx=0;exitDy=0;entryX=0.5;entryY=0;entryDx=0;entryDy=0;fontSize=15;labelBackgroundColor=none;" edge="1" parent="1" source="A_dErglWLUNFQnM9_SRv-108" target="A_dErglWLUNFQnM9_SRv-110">
          <mxGeometry relative="1" as="geometry" />
        </mxCell>
        <mxCell id="A_dErglWLUNFQnM9_SRv-108" value="Nieuwe Hypotheekgever" style="text;html=1;strokeColor=none;fillColor=none;align=center;verticalAlign=middle;whiteSpace=wrap;rounded=0;fontStyle=1;fontSize=15;labelBackgroundColor=none;" vertex="1" parent="1">
          <mxGeometry x="-1108.5000000000002" y="385.9999999999999" width="147" height="20" as="geometry" />
        </mxCell>
        <mxCell id="A_dErglWLUNFQnM9_SRv-109" style="edgeStyle=orthogonalEdgeStyle;rounded=0;orthogonalLoop=1;jettySize=auto;html=1;exitX=0.5;exitY=1;exitDx=0;exitDy=0;entryX=0.5;entryY=0;entryDx=0;entryDy=0;fontSize=15;labelBackgroundColor=none;" edge="1" parent="1" source="A_dErglWLUNFQnM9_SRv-110" target="A_dErglWLUNFQnM9_SRv-117">
          <mxGeometry relative="1" as="geometry" />
        </mxCell>
        <mxCell id="A_dErglWLUNFQnM9_SRv-110" value="Nieuwe hoofdelijke aansprakelijke wegens nieuwe relatie" style="text;whiteSpace=wrap;html=1;fontSize=15;align=center;labelBackgroundColor=none;" vertex="1" parent="1">
          <mxGeometry x="-1117.9999999999998" y="516" width="166" height="66" as="geometry" />
        </mxCell>
        <mxCell id="A_dErglWLUNFQnM9_SRv-111" value="&lt;div&gt;&lt;font face=&quot;helvetica&quot; style=&quot;font-size: 15px&quot;&gt;Id (V)&lt;/font&gt;&lt;/div&gt;" style="text;whiteSpace=wrap;html=1;fontSize=15;align=center;labelBackgroundColor=none;" vertex="1" parent="1">
          <mxGeometry x="-3859.5" y="337.9999999999998" width="154" height="68" as="geometry" />
        </mxCell>
        <mxCell id="A_dErglWLUNFQnM9_SRv-112" value="&lt;div&gt;&lt;font face=&quot;helvetica&quot; style=&quot;font-size: 15px&quot;&gt;Id (V)&lt;/font&gt;&lt;/div&gt;" style="text;whiteSpace=wrap;html=1;fontSize=15;align=center;labelBackgroundColor=none;" vertex="1" parent="1">
          <mxGeometry x="-3522" y="457" width="154" height="68" as="geometry" />
        </mxCell>
        <mxCell id="A_dErglWLUNFQnM9_SRv-113" value="&lt;div&gt;&lt;font face=&quot;helvetica&quot; style=&quot;font-size: 15px&quot;&gt;Id (V)&lt;/font&gt;&lt;/div&gt;" style="text;whiteSpace=wrap;html=1;fontSize=15;align=center;labelBackgroundColor=none;" vertex="1" parent="1">
          <mxGeometry x="-1849.5" y="830" width="154" height="68" as="geometry" />
        </mxCell>
        <mxCell id="A_dErglWLUNFQnM9_SRv-114" value="&lt;div&gt;&lt;font face=&quot;helvetica&quot; style=&quot;font-size: 15px&quot;&gt;Id (V)&lt;/font&gt;&lt;/div&gt;&lt;div&gt;&lt;span&gt;&lt;font face=&quot;helvetica&quot; style=&quot;font-size: 15px&quot;&gt;..... (V)&lt;/font&gt;&lt;/span&gt;&lt;/div&gt;&lt;div&gt;&lt;span&gt;&lt;font face=&quot;helvetica&quot; style=&quot;font-size: 15px&quot;&gt;.... (CV)&lt;/font&gt;&lt;/span&gt;&lt;/div&gt;&lt;div&gt;&lt;span&gt;&lt;font face=&quot;helvetica&quot; style=&quot;font-size: 15px&quot;&gt;.... (O)&lt;/font&gt;&lt;/span&gt;&lt;/div&gt;" style="text;whiteSpace=wrap;html=1;fontSize=15;align=center;labelBackgroundColor=none;" vertex="1" parent="1">
          <mxGeometry x="-2325.5" y="852" width="154" height="68" as="geometry" />
        </mxCell>
        <mxCell id="A_dErglWLUNFQnM9_SRv-115" value="&lt;div&gt;&lt;font face=&quot;helvetica&quot; style=&quot;font-size: 15px&quot;&gt;Id (V)&lt;/font&gt;&lt;/div&gt;&lt;div&gt;&lt;span&gt;&lt;font face=&quot;helvetica&quot; style=&quot;font-size: 15px&quot;&gt;..... (V)&lt;/font&gt;&lt;/span&gt;&lt;/div&gt;&lt;div&gt;&lt;span&gt;&lt;font face=&quot;helvetica&quot; style=&quot;font-size: 15px&quot;&gt;.... (CV)&lt;/font&gt;&lt;/span&gt;&lt;/div&gt;&lt;div&gt;&lt;span&gt;&lt;font face=&quot;helvetica&quot; style=&quot;font-size: 15px&quot;&gt;.... (O)&lt;/font&gt;&lt;/span&gt;&lt;/div&gt;" style="text;whiteSpace=wrap;html=1;fontSize=15;align=center;labelBackgroundColor=none;" vertex="1" parent="1">
          <mxGeometry x="-2084.5" y="855" width="154" height="68" as="geometry" />
        </mxCell>
        <mxCell id="A_dErglWLUNFQnM9_SRv-116" value="&lt;div&gt;&lt;font face=&quot;helvetica&quot; style=&quot;font-size: 15px&quot;&gt;Id (V)&lt;/font&gt;&lt;/div&gt;" style="text;whiteSpace=wrap;html=1;fontSize=15;align=center;labelBackgroundColor=none;" vertex="1" parent="1">
          <mxGeometry x="-1590.5" y="644.9999999999999" width="154" height="68" as="geometry" />
        </mxCell>
        <mxCell id="A_dErglWLUNFQnM9_SRv-117" value="&lt;div&gt;&lt;font face=&quot;helvetica&quot; style=&quot;font-size: 15px&quot;&gt;Id (V)&lt;/font&gt;&lt;/div&gt;&lt;div&gt;&lt;span&gt;&lt;font face=&quot;helvetica&quot; style=&quot;font-size: 15px&quot;&gt;..... (V)&lt;/font&gt;&lt;/span&gt;&lt;/div&gt;&lt;div&gt;&lt;span&gt;&lt;font face=&quot;helvetica&quot; style=&quot;font-size: 15px&quot;&gt;.... (CV)&lt;/font&gt;&lt;/span&gt;&lt;/div&gt;&lt;div&gt;&lt;span&gt;&lt;font face=&quot;helvetica&quot; style=&quot;font-size: 15px&quot;&gt;.... (O)&lt;/font&gt;&lt;/span&gt;&lt;/div&gt;" style="text;whiteSpace=wrap;html=1;fontSize=15;align=center;labelBackgroundColor=none;" vertex="1" parent="1">
          <mxGeometry x="-1112" y="645.0000000000002" width="154" height="68" as="geometry" />
        </mxCell>
        <mxCell id="A_dErglWLUNFQnM9_SRv-118" value="&lt;div&gt;&lt;font face=&quot;helvetica&quot; style=&quot;font-size: 15px&quot;&gt;Id (V)&lt;/font&gt;&lt;/div&gt;" style="text;whiteSpace=wrap;html=1;fontSize=15;align=center;labelBackgroundColor=none;" vertex="1" parent="1">
          <mxGeometry x="-1340.4999999999995" y="645.0000000000002" width="154" height="68" as="geometry" />
        </mxCell>
        <mxCell id="A_dErglWLUNFQnM9_SRv-119" value="&lt;div style=&quot;font-size: 24px&quot;&gt;&lt;span style=&quot;font-size: 24px&quot;&gt;&lt;font face=&quot;helvetica&quot; style=&quot;font-size: 24px&quot;&gt;&lt;b style=&quot;font-size: 24px&quot;&gt;Conceptueel MutatieModel&lt;/b&gt;&lt;/font&gt;&lt;/span&gt;&lt;/div&gt;&lt;div style=&quot;font-size: 24px&quot;&gt;&lt;span style=&quot;font-size: 24px&quot;&gt;&lt;font face=&quot;helvetica&quot; style=&quot;font-size: 24px&quot;&gt;&lt;b style=&quot;font-size: 24px&quot;&gt;Ontslag Hoofdelijke Aansprakelijkheid (OHA)&lt;/b&gt;&lt;/font&gt;&lt;/span&gt;&lt;/div&gt;" style="text;whiteSpace=wrap;html=1;fontSize=24;align=center;" vertex="1" parent="1">
          <mxGeometry x="-1393" y="1056" width="597" height="81" as="geometry" />
        </mxCell>
        <mxCell id="A_dErglWLUNFQnM9_SRv-120" style="edgeStyle=orthogonalEdgeStyle;rounded=0;orthogonalLoop=1;jettySize=auto;html=1;exitX=0.5;exitY=1;exitDx=0;exitDy=0;" edge="1" parent="1" source="A_dErglWLUNFQnM9_SRv-121" target="A_dErglWLUNFQnM9_SRv-122">
          <mxGeometry relative="1" as="geometry" />
        </mxCell>
        <mxCell id="A_dErglWLUNFQnM9_SRv-121" value="&lt;span style=&quot;color: rgb(0 , 0 , 0) ; font-family: &amp;#34;helvetica&amp;#34; ; font-size: 15px ; font-style: normal ; font-weight: 400 ; letter-spacing: normal ; text-indent: 0px ; text-transform: none ; word-spacing: 0px ; display: inline ; float: none&quot;&gt;Wijziging#1&lt;br&gt;Omzetten Hypotheekvorm (Aflosvorm)&lt;/span&gt;" style="text;whiteSpace=wrap;html=1;align=center;labelBackgroundColor=none;" vertex="1" parent="1">
          <mxGeometry x="-3864" y="846.03" width="185" height="90" as="geometry" />
        </mxCell>
        <mxCell id="A_dErglWLUNFQnM9_SRv-122" value="&lt;p&gt;leningdeelNr (V)&lt;br&gt;productCode (V)&lt;br&gt;AflosVorm (O)&lt;/p&gt;&lt;p&gt;&lt;br&gt;&lt;/p&gt;" style="text;html=1;strokeColor=none;fillColor=none;spacing=5;spacingTop=-20;whiteSpace=wrap;overflow=hidden;rounded=0;fontSize=15;align=center;labelBackgroundColor=none;" vertex="1" parent="1">
          <mxGeometry x="-3861" y="1008" width="178" height="69" as="geometry" />
        </mxCell>
        <mxCell id="A_dErglWLUNFQnM9_SRv-123" value="&lt;span style=&quot;color: rgb(0, 0, 0); font-family: helvetica; font-size: 15px; font-style: normal; letter-spacing: normal; text-align: center; text-indent: 0px; text-transform: none; word-spacing: 0px; display: inline; float: none;&quot;&gt;(Omzetten lening)&lt;/span&gt;" style="text;whiteSpace=wrap;html=1;fontStyle=0;labelBackgroundColor=none;" vertex="1" parent="1">
          <mxGeometry x="-2588.003333333333" y="215.996666666667" width="137" height="29" as="geometry" />
        </mxCell>
        <mxCell id="A_dErglWLUNFQnM9_SRv-124" value="&lt;span style=&quot;color: rgb(0, 0, 0); font-family: helvetica; font-size: 15px; font-style: normal; letter-spacing: normal; text-align: center; text-indent: 0px; text-transform: none; word-spacing: 0px; display: inline; float: none;&quot;&gt;(Omzetten lening)&lt;/span&gt;" style="text;whiteSpace=wrap;html=1;fontStyle=0;labelBackgroundColor=none;" vertex="1" parent="1">
          <mxGeometry x="-2933.493333333333" y="404.996666666667" width="137" height="29" as="geometry" />
        </mxCell>
      </root>
    </mxGraphModel>
  </diagram>
</mxfile>
